<svg width="24" height="24" viewBox="0 0 24 24" fill="none" xmlns="http://www.w3.org/2000/svg">
<g clip-path="url(#clip0_667_712)">
<path d="M10.8613 3.36335C11.3679 2.45445 11.6213 2 12 2C12.3787 2 12.6321 2.45445 13.1387 3.36335L13.2698 3.59849C13.4138 3.85677 13.4858 3.98591 13.598 4.07112C13.7103 4.15633 13.8501 4.18796 14.1296 4.25122L14.3842 4.30881C15.3681 4.53142 15.86 4.64273 15.977 5.01909C16.0941 5.39546 15.7587 5.78763 15.088 6.57197L14.9144 6.77489C14.7238 6.99777 14.6285 7.10922 14.5857 7.24709C14.5428 7.38496 14.5572 7.53364 14.586 7.83102L14.6122 8.10176C14.7136 9.14824 14.7644 9.67148 14.4579 9.90409C14.1515 10.1367 13.6909 9.92462 12.7697 9.50047L12.5314 9.39073C12.2696 9.2702 12.1387 9.20994 12 9.20994C11.8613 9.20994 11.7304 9.2702 11.4686 9.39073L11.2303 9.50047C10.3091 9.92462 9.84847 10.1367 9.54206 9.90409C9.23565 9.67148 9.28635 9.14824 9.38776 8.10176L9.41399 7.83102C9.44281 7.53364 9.45722 7.38496 9.41435 7.24709C9.37147 7.10922 9.27617 6.99777 9.08557 6.77489L8.91204 6.57197C8.2413 5.78763 7.90593 5.39546 8.02297 5.01909C8.14001 4.64273 8.63194 4.53142 9.61581 4.30881L9.87035 4.25122C10.1499 4.18796 10.2897 4.15633 10.402 4.07112C10.5142 3.98591 10.5862 3.85677 10.7302 3.59849L10.8613 3.36335Z" stroke="#333333"/>
<path d="M19.4306 4.68168C19.684 4.22723 19.8106 4 20 4C20.1894 4 20.316 4.22722 20.5694 4.68167L20.6349 4.79925C20.7069 4.92839 20.7429 4.99296 20.799 5.03556C20.8551 5.07817 20.925 5.09398 21.0648 5.12561L21.1921 5.15441C21.684 5.26571 21.93 5.32136 21.9885 5.50955C22.047 5.69773 21.8794 5.89381 21.544 6.28598L21.4572 6.38744C21.3619 6.49889 21.3143 6.55461 21.2928 6.62354C21.2714 6.69248 21.2786 6.76682 21.293 6.91551L21.3061 7.05088C21.3568 7.57412 21.3822 7.83574 21.229 7.95204C21.0758 8.06835 20.8455 7.96231 20.3849 7.75023L20.2657 7.69537C20.1348 7.6351 20.0694 7.60497 20 7.60497C19.9306 7.60497 19.8652 7.6351 19.7343 7.69537L19.6151 7.75023C19.1545 7.96231 18.9242 8.06835 18.771 7.95204C18.6178 7.83574 18.6432 7.57412 18.6939 7.05088L18.707 6.91551C18.7214 6.76682 18.7286 6.69248 18.7072 6.62354C18.6857 6.55461 18.6381 6.49889 18.5428 6.38744L18.456 6.28599C18.1206 5.89381 17.953 5.69773 18.0115 5.50955C18.07 5.32136 18.316 5.26571 18.8079 5.15441L18.9352 5.12561C19.075 5.09398 19.1449 5.07817 19.201 5.03556C19.2571 4.99296 19.2931 4.92839 19.3651 4.79925L19.4306 4.68168Z" stroke="#333333"/>
<path d="M3.43063 4.68168C3.68396 4.22723 3.81063 4 4 4C4.18937 4 4.31604 4.22722 4.56937 4.68167L4.63491 4.79925C4.7069 4.92839 4.74289 4.99296 4.79901 5.03556C4.85513 5.07817 4.92503 5.09398 5.06482 5.12561L5.19209 5.15441C5.68403 5.26571 5.93 5.32136 5.98852 5.50955C6.04704 5.69773 5.87935 5.89381 5.54398 6.28598L5.45722 6.38744C5.36191 6.49889 5.31426 6.55461 5.29283 6.62354C5.27139 6.69248 5.27859 6.76682 5.293 6.91551L5.30612 7.05088C5.35682 7.57412 5.38218 7.83574 5.22897 7.95204C5.07576 8.06835 4.84547 7.96231 4.38487 7.75023L4.2657 7.69537C4.13481 7.6351 4.06937 7.60497 4 7.60497C3.93063 7.60497 3.86519 7.6351 3.7343 7.69537L3.61513 7.75023C3.15454 7.96231 2.92424 8.06835 2.77103 7.95204C2.61782 7.83574 2.64318 7.57412 2.69388 7.05088L2.707 6.91551C2.72141 6.76682 2.72861 6.69248 2.70717 6.62354C2.68574 6.55461 2.63809 6.49889 2.54278 6.38744L2.45602 6.28599C2.12065 5.89381 1.95296 5.69773 2.01148 5.50955C2.07 5.32136 2.31597 5.26571 2.80791 5.15441L2.93518 5.12561C3.07497 5.09398 3.14487 5.07817 3.20099 5.03556C3.25711 4.99296 3.29311 4.92839 3.36509 4.79925L3.43063 4.68168Z" stroke="#333333"/>
<path d="M7 20.3884H9.25993C10.2708 20.3884 11.2925 20.4937 12.2763 20.6964C14.0166 21.0549 15.8488 21.0983 17.6069 20.8138C18.4738 20.6734 19.326 20.4589 20.0975 20.0865C20.7939 19.7504 21.6469 19.2766 22.2199 18.7459C22.7921 18.216 23.388 17.3487 23.8109 16.6707C24.1736 16.0894 23.9982 15.3762 23.4245 14.943C22.7873 14.4619 21.8417 14.462 21.2046 14.9433L19.3974 16.3084C18.697 16.8375 17.932 17.3245 17.0206 17.4699C16.911 17.4874 16.7962 17.5033 16.6764 17.5172M16.6764 17.5172C16.6403 17.5214 16.6038 17.5254 16.5668 17.5292M16.6764 17.5172C16.8222 17.486 16.9669 17.396 17.1028 17.2775C17.746 16.7161 17.7866 15.77 17.2285 15.1431C17.0991 14.9977 16.9475 14.8764 16.7791 14.7759C13.9817 13.1074 9.62942 14.3782 7 16.2429M16.6764 17.5172C16.6399 17.525 16.6033 17.5292 16.5668 17.5292M16.5668 17.5292C16.0434 17.5829 15.4312 17.5968 14.7518 17.5326" stroke="#333333" stroke-linecap="round"/>
<rect x="2" y="14" width="3" height="8" rx="1.5" stroke="#333333"/>
</g>
<defs>
<clipPath id="clip0_667_712">
<rect width="24" height="24" fill="white"/>
</clipPath>
</defs>
</svg>
